<svg xmlns="http://www.w3.org/2000/svg" viewBox="0 0 358.44 131.31"><defs><style>.cls-1{fill:#224556;}.cls-2{fill:#4d4d4d;}.cls-3,.cls-4{fill:none;stroke:#000;stroke-miterlimit:10;}.cls-3{opacity:0.29;}.cls-4{opacity:0.28;}</style></defs><g id="Layer_2" data-name="Layer 2"><g id="Layer_1-2" data-name="Layer 1"><path class="cls-1" d="M47.66,60.58,45.07,30.92h-.2L34.62,60.58h-7.4l-3-41.8c-.07-1-.26-1.17-1-1.36l-3-.65.45-3.18h14l-.39,3.18-4.74.65L31.7,54h.19L42.8,23.07h6.49l3,31.54h.2L64.34,17.42l-4.54-.65.45-3.18H73.82l-.39,3.18-2.86.58c-.71.13-1.1.46-1.49,1.63L55.13,60.58Z"/><path class="cls-1" d="M68.69,48.31a32.9,32.9,0,0,1,.45-5.39C70.64,33.19,76,26.57,85,26.57c8.12,0,11,5.71,11,13a38.14,38.14,0,0,1-.39,5.33C94.26,55.06,89,61.35,80.05,61.35,72.19,61.35,68.69,56.16,68.69,48.31ZM90,44.09a41.31,41.31,0,0,0,.26-4.61c0-5.51-2.08-8.3-6-8.3-4.54,0-8.31,3.89-9.41,12.07a42.65,42.65,0,0,0-.32,4.8c0,5.84,2.14,8.83,6.23,8.83C85.43,56.88,88.87,52.72,90,44.09Z"/><path class="cls-1" d="M97.89,60.58l.39-3,2.73-.65c.58-.13.84-.26,1-1.11l3.25-23c.13-.78,0-1.24-.59-1.43l-2.79-1,.46-3.11h8.82l-.91,6.1.2.13c3.44-4.67,5.58-6.88,9.47-6.88a12.6,12.6,0,0,1,3.77.58l-1.43,9.93-4.35-.26-.06-4.41c0-.45-.07-.65-.72-.65-.84,0-2.46.46-7,7l-2.33,16.81c-.13,1-.07,1.23.78,1.3l4.8.65-.46,3Z"/><path class="cls-1" d="M143.39,60.58l-.2-.26-1.69-6.43-3.24-10.71-5.32,6L132,55.58c-.13,1-.13,1.17.71,1.3l3.25.65-.46,3h-13.3l.45-3,2.73-.65c.78-.2.84-.33,1-1.3L131.77,17c.06-.72-.07-1.11-.59-1.3l-2.85-1,.45-3.11h9.41l-4.28,30.63,10.9-12.52c2.14-2.41,4-3.12,6.43-3.12a11.21,11.21,0,0,1,2.59.26l-.52,4.22c-2.14-.07-3.69.06-6,2.79l-4.41,5.26L148,55.64c.2.78.33.78,1,1l3.18.91-.45,3Z"/><path class="cls-1" d="M167.79,60.58l.38-3.18,3.51-.46c.65-.06.84-.32,1-1.23l5.13-37.19c.13-.91.06-1.23-.65-1.29l-3.37-.46.45-3.18h16.35c11.62,0,16.55,7.33,16.55,18.43,0,16.42-7.4,28.56-23.75,28.56ZM183.68,56c11.49,0,17.53-9.35,17.53-23.75,0-10.45-4.55-14-12.33-14h-5.33L178.43,56Z"/><path class="cls-1" d="M228.14,60.58l.78-5.52-.2-.13c-3.31,3.76-6.36,6.42-10.45,6.42-5.06,0-8-3.76-8-12.13,0-9.28,3.63-22.65,14.08-22.65a10.39,10.39,0,0,1,7.73,3.7l1-3.05h5.2c-.65,3.31-1.37,6.62-1.89,10.06L234,55.64c-.13,1-.13,1.17.65,1.3l2.59.59-.45,3ZM231.25,35c-1.3-1.69-3.63-3.64-6.29-3.64-6.82,0-8.89,11-8.89,17.72,0,5.45,1.68,7.2,3.89,7.2,2.86,0,5.84-2.59,9.35-7.2Z"/><path class="cls-1" d="M249.75,59.6,244.62,32c-.13-.78-.32-.91-.91-1.1l-2.14-.59.46-3.11h7.85l.32.39,1,8.18,2.6,16.74H254l9.22-21.48-3.38-.72.46-3.11h9l.39.78L252.6,65.57c-2.92,6.36-5.38,9.48-10.64,9.48a10.7,10.7,0,0,1-7.4-2.86l2.34-3.63a8.11,8.11,0,0,0,4.87,1.94c3,0,4.34-2.66,6-6.29Z"/><path class="cls-1" d="M26.6,85.88l-1-7c-.17-1.32-.33-1.74-1.4-2.15a15.26,15.26,0,0,0-5.62-1c-7.44,0-10.08,3.3-10.08,9.33,0,15.45,25.28,6.36,25.28,28.83,0,12.81-8.68,17.43-18.84,17.43-6.36,0-12.72-1.89-14.95-3.13V114.63H5.37l1.4,7.27c.17,1.07.25,1.32,1.16,1.73a18.53,18.53,0,0,0,7.52,1.49c7.35,0,10.9-3.22,10.9-10.33C26.35,98.11,1,107.94,1,85.88,1,74.31,8.92,69.44,18.92,69.44a34.31,34.31,0,0,1,13.22,2.89v14Z"/><path class="cls-1" d="M73.85,128c-3,2.07-7.76,3.3-12.47,3.3-12.64,0-17.35-9-17.35-21.72C44,93.89,51.22,87,62.54,87a24.21,24.21,0,0,1,11,2.56v11l-5.28-.24-.83-5.46a1.23,1.23,0,0,0-.83-1.15A12.23,12.23,0,0,0,62.12,93c-6.11,0-10.41,4.3-10.41,16.11,0,11.57,4,16,10.83,16a17.58,17.58,0,0,0,9.25-2.56Z"/><path class="cls-1" d="M106.82,130.32v-4.46l3.47-.49c.66-.09.9-.17.9-1.16v-22.3c0-6.28-1.15-8.51-5.53-8.51-3.64,0-7.44,2.23-10.33,4.71v25.52c0,1.32.09,1.49,1.08,1.65l3.71.58v4.46H83.52v-4.54l3.3-.5c1-.16,1.16-.41,1.16-1.65v-48c0-.91-.25-1.49-1-1.74l-4-1.57L83.68,68H95.33V92c3.72-3,7.6-4.95,12-4.95,7.68,0,11.24,3.8,11.24,13.71v22.88c0,1.32.08,1.49,1.07,1.65l3.88.58v4.46Z"/><path class="cls-1" d="M162.16,127.93A27.9,27.9,0,0,1,149,131.31c-13.22,0-17.18-9.16-17.18-22.47,0-14.78,6.44-21.8,16.27-21.8,9.42,0,14.7,5.45,14.7,19.74,0,1.07-.08,2.48-.08,3.8H139.61c.25,9.33,2.73,14.37,10.16,14.37a20.61,20.61,0,0,0,10.33-2.72Zm-6.6-22.55c-.17-9.42-2.65-12.31-7.52-12.31s-7.85,3-8.35,12.31Z"/><path class="cls-1" d="M199.17,130.32l-.66-4.71-.25-.08a15.92,15.92,0,0,1-12.06,5.78c-9.08,0-13.38-6.11-13.38-21.31,0-17.59,6.44-23,14.71-23a14.21,14.21,0,0,1,10.4,4.13V75.55c0-.82-.24-1.4-.9-1.65l-4.14-1.57.67-4.38H205v55.68c0,1.32.08,1.49,1.07,1.65l3.39.58v4.46Zm-1.4-32.38c-3-3.06-5.21-4.71-8.68-4.71-6.11,0-8.59,5.54-8.59,16.61,0,11.56,2.73,15.11,7.77,15.11,3.47,0,7.1-2.06,9.5-5.28Z"/><path class="cls-1" d="M245.44,130.32l-.58-5.28-.17-.09c-3.05,3.14-7.1,6.36-13.05,6.36-8.18,0-10.74-5.12-10.74-14v-22c0-1.33-.08-1.57-1.07-1.9l-3.56-1.08.58-4.46h11.4v28.5c0,6.12,1.24,8.59,5.54,8.59,4.46,0,8-3.3,10.32-6.6V95.21c0-1.32-.08-1.48-1.15-1.81l-3.39-1.08.58-4.46h11.32v35.69c0,1.24.16,1.65.91,1.73l3.71.58v4.46Z"/><path class="cls-1" d="M264.68,130.32v-4.54l4.05-.5c1-.08,1.16-.41,1.16-1.65v-48c0-.91-.25-1.49-.91-1.74l-4-1.57.66-4.38h11.57v55.68c0,1.32.08,1.49,1.16,1.65l4,.58v4.46Z"/><path class="cls-1" d="M321,127.93a27.9,27.9,0,0,1-13.13,3.38c-13.22,0-17.19-9.16-17.19-22.47C290.7,94.06,297.15,87,307,87c9.42,0,14.7,5.45,14.7,19.74,0,1.07-.08,2.48-.08,3.8H298.47c.25,9.33,2.73,14.37,10.16,14.37A20.63,20.63,0,0,0,319,122.23Zm-6.61-22.55c-.16-9.42-2.64-12.31-7.51-12.31s-7.85,3-8.35,12.31Z"/><path class="cls-1" d="M331.35,130.32v-4.54l3.39-.5c1-.16,1.15-.41,1.15-1.65V95.54c0-.9-.16-1.48-.91-1.73l-4-1.57.66-4.38h10l.67,5,.16.08c2.4-2.89,6.53-5.94,11-5.94a15.7,15.7,0,0,1,4.95.82v12.48l-5.61-.33-.75-5.62c-.08-.66-.24-.83-.91-.83-2.56,0-5.53,2-7.93,4.79v25.2c0,1.32,0,1.57,1.08,1.65l5.78.66v4.46Z"/><path class="cls-2" d="M294,76.4a1.39,1.39,0,0,1-1.37-1.17l-9.77-63.7A1.4,1.4,0,0,1,284,10L348.79,0a1.34,1.34,0,0,1,1,.25,1.35,1.35,0,0,1,.55.9l7.54,49.18a1.36,1.36,0,0,1-.5,1.29L334.47,70a1.34,1.34,0,0,1-.66.28l-39.63,6.08Zm-8.19-63.92,9.35,61L333,67.63l22-17.65L347.84,3Z"/><path class="cls-2" d="M333.61,70.32a1.52,1.52,0,0,1-.51-.09,1.37,1.37,0,0,1-.86-1.08L330,54.63a1.4,1.4,0,0,1,1.16-1.58l25.16-3.85a1.38,1.38,0,0,1,1.07,2.44L334.47,70A1.39,1.39,0,0,1,333.61,70.32ZM333,55.58l1.66,10.78,17-13.65Z"/><path class="cls-2" d="M288.71,12a1.38,1.38,0,0,1-1.38-1.38V6a1.37,1.37,0,0,1,1.38-1.38H319a1.38,1.38,0,0,1,0,2.76H290.09v3.27A1.38,1.38,0,0,1,288.71,12Z"/><path class="cls-2" d="M293.26,71.8h-4.55a1.38,1.38,0,0,1-1.38-1.38V40.7a1.38,1.38,0,1,1,2.76,0V69h3.17a1.38,1.38,0,1,1,0,2.76Z"/><path class="cls-2" d="M354.26,71.8H323.94a1.38,1.38,0,0,1,0-2.76h28.94V52.39a1.38,1.38,0,1,1,2.76,0v18A1.38,1.38,0,0,1,354.26,71.8Z"/><path class="cls-2" d="M354.26,37.08a1.38,1.38,0,0,1-1.38-1.38V7.36H349.7a1.38,1.38,0,1,1,0-2.76h4.56A1.38,1.38,0,0,1,355.64,6V35.7A1.38,1.38,0,0,1,354.26,37.08Z"/><path class="cls-2" d="M324.21,22.23A4.06,4.06,0,0,1,320.39,18,3.84,3.84,0,1,1,328,18,4.06,4.06,0,0,1,324.21,22.23Zm0-5.76c-.56,0-1,.7-1,1.5s.49,1.5,1,1.5,1.05-.7,1.05-1.5S324.76,16.47,324.21,16.47Z"/><path class="cls-2" d="M321.05,23.82c-2.84,0-5.16-2.62-5.16-5.85s2.32-5.86,5.16-5.86a4.93,4.93,0,0,1,4,2.19,1.38,1.38,0,1,1-2.25,1.6,2.22,2.22,0,0,0-1.78-1c-1.32,0-2.39,1.38-2.39,3.09s1.07,3.09,2.39,3.09a2.22,2.22,0,0,0,1.78-1,1.38,1.38,0,1,1,2.26,1.59A5,5,0,0,1,321.05,23.82Z"/><line class="cls-3" x1="296.84" y1="33.53" x2="318.63" y2="30.47"/><line class="cls-4" x1="297.37" y1="40.5" x2="344.24" y2="33.5"/><line class="cls-3" x1="297.83" y1="46.47" x2="344.7" y2="39.47"/></g></g></svg>